<svg aria-hidden="true" style="position: absolute; width: 0; height: 0; overflow: hidden;" version="1.1" xmlns="http://www.w3.org/2000/svg" xmlns:xlink="http://www.w3.org/1999/xlink">
<defs>
<symbol id="icon-calendar" viewBox="0 0 32 32">
<path d="M10.667 7.667c-0.547 0-1-0.453-1-1v-4c0-0.547 0.453-1 1-1s1 0.453 1 1v4c0 0.547-0.453 1-1 1zM21.333 7.667c-0.547 0-1-0.453-1-1v-4c0-0.547 0.453-1 1-1s1 0.453 1 1v4c0 0.547-0.453 1-1 1zM11.333 19.333c-0.173 0-0.347-0.040-0.507-0.107-0.173-0.067-0.307-0.16-0.44-0.28-0.24-0.253-0.387-0.587-0.387-0.947 0-0.173 0.040-0.347 0.107-0.507s0.16-0.307 0.28-0.44c0.133-0.12 0.267-0.213 0.44-0.28 0.48-0.2 1.080-0.093 1.453 0.28 0.24 0.253 0.387 0.6 0.387 0.947 0 0.080-0.013 0.173-0.027 0.267-0.013 0.080-0.040 0.16-0.080 0.24-0.027 0.080-0.067 0.16-0.12 0.24-0.040 0.067-0.107 0.133-0.16 0.2-0.253 0.24-0.6 0.387-0.947 0.387zM16 19.333c-0.173 0-0.347-0.040-0.507-0.107-0.173-0.067-0.307-0.16-0.44-0.28-0.24-0.253-0.387-0.587-0.387-0.947 0-0.173 0.040-0.347 0.107-0.507s0.16-0.307 0.28-0.44c0.133-0.12 0.267-0.213 0.44-0.28 0.48-0.213 1.080-0.093 1.453 0.28 0.24 0.253 0.387 0.6 0.387 0.947 0 0.080-0.013 0.173-0.027 0.267-0.013 0.080-0.040 0.16-0.080 0.24-0.027 0.080-0.067 0.16-0.12 0.24-0.040 0.067-0.107 0.133-0.16 0.2-0.253 0.24-0.6 0.387-0.947 0.387zM20.667 19.333c-0.173 0-0.347-0.040-0.507-0.107-0.173-0.067-0.307-0.16-0.44-0.28l-0.16-0.2c-0.048-0.069-0.088-0.148-0.118-0.233l-0.002-0.007c-0.036-0.069-0.064-0.15-0.079-0.235l-0.001-0.005c-0.013-0.093-0.027-0.187-0.027-0.267 0-0.347 0.147-0.693 0.387-0.947 0.133-0.12 0.267-0.213 0.44-0.28 0.493-0.213 1.080-0.093 1.453 0.28 0.24 0.253 0.387 0.6 0.387 0.947 0 0.080-0.013 0.173-0.027 0.267-0.013 0.080-0.040 0.16-0.080 0.24-0.027 0.080-0.067 0.16-0.12 0.24-0.040 0.067-0.107 0.133-0.16 0.2-0.253 0.24-0.6 0.387-0.947 0.387zM11.333 24c-0.173 0-0.347-0.040-0.507-0.107s-0.307-0.16-0.44-0.28c-0.24-0.253-0.387-0.6-0.387-0.947 0-0.173 0.040-0.347 0.107-0.507 0.067-0.173 0.16-0.32 0.28-0.44 0.493-0.493 1.4-0.493 1.893 0 0.24 0.253 0.387 0.6 0.387 0.947s-0.147 0.693-0.387 0.947c-0.253 0.24-0.6 0.387-0.947 0.387zM16 24c-0.347 0-0.693-0.147-0.947-0.387-0.24-0.253-0.387-0.6-0.387-0.947 0-0.173 0.040-0.347 0.107-0.507 0.067-0.173 0.16-0.32 0.28-0.44 0.493-0.493 1.4-0.493 1.893 0 0.12 0.12 0.213 0.267 0.28 0.44 0.067 0.16 0.107 0.333 0.107 0.507 0 0.347-0.147 0.693-0.387 0.947-0.253 0.24-0.6 0.387-0.947 0.387zM20.667 24c-0.347 0-0.693-0.147-0.947-0.387-0.12-0.122-0.215-0.268-0.277-0.431l-0.003-0.009c-0.066-0.149-0.105-0.323-0.107-0.506v-0.001c0-0.173 0.040-0.347 0.107-0.507 0.067-0.173 0.16-0.32 0.28-0.44 0.307-0.307 0.773-0.453 1.2-0.36 0.093 0.013 0.173 0.040 0.253 0.080 0.080 0.027 0.16 0.067 0.24 0.12 0.067 0.040 0.133 0.107 0.2 0.16 0.24 0.253 0.387 0.6 0.387 0.947s-0.147 0.693-0.387 0.947c-0.253 0.24-0.6 0.387-0.947 0.387zM27.333 13.12h-22.667c-0.547 0-1-0.453-1-1s0.453-1 1-1h22.667c0.547 0 1 0.453 1 1s-0.453 1-1 1z"></path>
<path d="M21.333 30.333h-10.667c-4.867 0-7.667-2.8-7.667-7.667v-11.333c0-4.867 2.8-7.667 7.667-7.667h10.667c4.867 0 7.667 2.8 7.667 7.667v11.333c0 4.867-2.8 7.667-7.667 7.667zM10.667 5.667c-3.813 0-5.667 1.853-5.667 5.667v11.333c0 3.813 1.853 5.667 5.667 5.667h10.667c3.813 0 5.667-1.853 5.667-5.667v-11.333c0-3.813-1.853-5.667-5.667-5.667h-10.667z"></path>
</symbol>
<symbol id="icon-course" viewBox="0 0 32 32">
<path d="M16.013 22.667c-1.133 0-2.28-0.293-3.173-0.867l-8.027-5.24c-1.445-0.947-2.387-2.558-2.387-4.39 0-0.004 0-0.007 0-0.011v0.001c0-1.787 0.893-3.427 2.387-4.4l8.040-5.227c1.787-1.16 4.573-1.16 6.347 0.013l7.987 5.24c1.48 0.973 2.373 2.613 2.373 4.387s-0.893 3.413-2.373 4.387l-7.987 5.24c-0.893 0.587-2.040 0.867-3.187 0.867zM16.013 3.667c-0.76 0-1.52 0.173-2.067 0.547l-8.027 5.227c-0.933 0.613-1.48 1.6-1.48 2.72s0.533 2.107 1.48 2.72l8.027 5.24c1.107 0.72 3.053 0.72 4.16 0l7.987-5.24c0.933-0.613 1.467-1.6 1.467-2.72s-0.533-2.107-1.467-2.72l-7.987-5.24c-0.56-0.347-1.32-0.533-2.093-0.533z"></path>
<path d="M16 30.333c-0.587 0-1.187-0.080-1.667-0.24l-4.253-1.413c-2.013-0.667-3.6-2.867-3.587-4.987l0.013-6.253c0-0.547 0.453-1 1-1s1 0.453 1 1l-0.013 6.253c0 1.253 1.040 2.693 2.227 3.093l4.253 1.413c0.533 0.173 1.52 0.173 2.053 0l4.253-1.413c1.187-0.4 2.227-1.84 2.227-3.080v-6.187c0-0.547 0.453-1 1-1s1 0.453 1 1v6.187c0 2.12-1.573 4.307-3.587 4.987l-4.253 1.413c-0.48 0.147-1.080 0.227-1.667 0.227zM28.533 21c-0.547 0-1-0.453-1-1v-8c0-0.547 0.453-1 1-1s1 0.453 1 1v8c0 0.547-0.453 1-1 1z"></path>
</symbol>
<symbol id="icon-games" viewBox="0 0 32 32">
<path d="M14.56 26.333c-0.387 0-0.76-0.053-1.067-0.173-4.56-1.56-11.827-7.133-11.827-15.373 0-4.227 3.413-7.653 7.613-7.653 2.013 0 3.893 0.773 5.293 2.147 1.358-1.328 3.218-2.147 5.269-2.147 0.009 0 0.017 0 0.026 0h-0.001c4.2 0 7.613 3.427 7.613 7.653 0 0.573-0.040 1.16-0.12 1.76-0.046 0.318-0.23 0.586-0.489 0.744l-0.005 0.003c-0.267 0.16-0.6 0.173-0.893 0.053-1.64-0.707-3.68-0.173-4.747 1.253-0.187 0.253-0.547 0.387-0.8 0.4-0.32 0-0.613-0.147-0.8-0.4-0.725-0.967-1.868-1.587-3.157-1.587-0.006 0-0.012 0-0.018 0h0.001c-2.173 0-3.947 1.787-3.947 3.987 0 3.467 1.987 5.933 3.667 7.413 0.24 0.213 0.36 0.52 0.333 0.84s-0.2 0.6-0.48 0.773c-0.147 0.080-0.267 0.133-0.333 0.147-0.347 0.107-0.733 0.16-1.133 0.16zM9.28 5.133c-3.093 0-5.613 2.533-5.613 5.653 0 6.973 5.8 11.267 9.133 12.92-1.267-1.693-2.307-3.933-2.307-6.72 0-3.307 2.667-5.987 5.947-5.987 1.493 0 2.893 0.547 3.973 1.52 1.060-0.935 2.462-1.506 3.996-1.506 0.374 0 0.739 0.034 1.094 0.099l-0.037-0.006v-0.307c0-3.12-2.52-5.653-5.613-5.653-1.773 0-3.413 0.827-4.493 2.253-0.187 0.253-0.48 0.4-0.8 0.4s-0.613-0.147-0.8-0.4c-1.012-1.38-2.628-2.267-4.451-2.267-0.010 0-0.021 0-0.031 0h0.002z"></path>
<path d="M20.427 28.867c-0.307 0-0.627-0.040-0.88-0.133-1.147-0.387-3-1.333-4.693-2.84-1.973-1.747-4.333-4.707-4.333-8.907 0-3.307 2.667-5.987 5.947-5.987 1.493 0 2.893 0.547 3.973 1.52 1.68-1.507 4.24-1.933 6.347-1.013 2.16 0.96 3.56 3.12 3.56 5.493 0 6.32-5.547 10.56-9.040 11.747-0.267 0.080-0.573 0.12-0.88 0.12zM16.453 13c-2.173 0-3.947 1.787-3.947 3.987 0 3.467 1.987 5.933 3.667 7.413 1.48 1.307 3.040 2.12 4.013 2.44 0.107 0.040 0.36 0.040 0.453 0 2-0.68 7.693-3.947 7.693-9.853 0-1.587-0.933-3.027-2.36-3.653-1.613-0.707-3.68-0.173-4.747 1.253-0.187 0.253-0.547 0.387-0.8 0.4-0.32 0-0.613-0.147-0.8-0.4-0.725-0.967-1.868-1.587-3.157-1.587-0.006 0-0.012 0-0.018 0h0.001z"></path>
</symbol>
<symbol id="icon-portfolio" viewBox="0 0 32 32">
<path d="M21.333 30.333h-10.667c-6.16 0-7.307-2.867-7.6-5.653l-1-10.68c-0.147-1.4-0.187-3.467 1.2-5.013 1.2-1.333 3.187-1.973 6.067-1.973h13.333c2.893 0 4.88 0.653 6.067 1.973 1.387 1.547 1.347 3.613 1.2 5.027l-1 10.653c-0.293 2.8-1.44 5.667-7.6 5.667zM9.333 9c-2.253 0-3.8 0.44-4.587 1.32-0.653 0.72-0.867 1.827-0.693 3.48l1 10.68c0.227 2.107 0.8 3.853 5.613 3.853h10.667c4.8 0 5.387-1.747 5.613-3.867l1-10.653c0.173-1.667-0.040-2.773-0.693-3.493-0.787-0.88-2.333-1.32-4.587-1.32h-13.333z"></path>
<path d="M21.333 9c-0.547 0-1-0.453-1-1v-1.067c0-2.373 0-3.267-3.267-3.267h-2.133c-3.267 0-3.267 0.893-3.267 3.267v1.067c0 0.547-0.453 1-1 1s-1-0.453-1-1v-1.067c0-2.347 0-5.267 5.267-5.267h2.133c5.267 0 5.267 2.92 5.267 5.267v1.067c0 0.547-0.453 1-1 1zM16 22.333c-3.667 0-3.667-2.267-3.667-3.627v-1.373c0-1.88 0.453-2.333 2.333-2.333h2.667c1.88 0 2.333 0.453 2.333 2.333v1.333c0 1.387 0 3.667-3.667 3.667zM14.333 17v1.707c0 1.373 0 1.627 1.667 1.627s1.667-0.213 1.667-1.64v-1.693h-3.333z"></path>
<path d="M18.667 19.693c-0.493 0-0.933-0.373-0.987-0.88-0.067-0.547 0.32-1.053 0.867-1.12 3.52-0.44 6.893-1.773 9.733-3.84 0.44-0.333 1.067-0.227 1.4 0.227 0.32 0.44 0.227 1.067-0.227 1.4-3.12 2.267-6.8 3.72-10.667 4.213h-0.12zM13.333 19.707h-0.12c-3.653-0.413-7.213-1.747-10.293-3.853-0.265-0.183-0.436-0.486-0.436-0.828 0-0.208 0.063-0.402 0.172-0.562l-0.002 0.004c0.307-0.453 0.933-0.573 1.387-0.267 2.813 1.92 6.053 3.133 9.387 3.52 0.547 0.067 0.947 0.56 0.88 1.107-0.040 0.507-0.467 0.88-0.973 0.88z"></path>
</symbol>
</defs>
</svg>
