<svg width="20" height="20" viewBox="0 0 20 20" fill="none" xmlns="http://www.w3.org/2000/svg">
<g clip-path="url(#clip0_164_185)">
<path d="M17.5621 9.52977C15.8957 5.8894 13.3768 4.05737 9.99999 4.05737C6.62148 4.05737 4.10429 5.8894 2.43789 9.53159C2.37105 9.67837 2.33638 9.83867 2.33638 10.001C2.33638 10.1633 2.37105 10.3236 2.43789 10.4704C4.10429 14.1108 6.62324 15.9428 9.99999 15.9428C13.3785 15.9428 15.8957 14.1108 17.5621 10.4686C17.6975 10.1733 17.6975 9.83055 17.5621 9.52977V9.52977ZM9.99999 14.6303C7.16464 14.6303 5.08867 13.1391 3.62441 10.0001C5.08867 6.86102 7.16464 5.36987 9.99999 5.36987C12.8353 5.36987 14.9113 6.86102 16.3756 10.0001C14.9131 13.1391 12.8371 14.6303 9.99999 14.6303ZM9.92968 6.79175C8.22109 6.79175 6.83593 8.22821 6.83593 10.0001C6.83593 11.772 8.22109 13.2084 9.92968 13.2084C11.6383 13.2084 13.0234 11.772 13.0234 10.0001C13.0234 8.22821 11.6383 6.79175 9.92968 6.79175ZM9.92968 12.0417C8.8416 12.0417 7.96093 11.1285 7.96093 10.0001C7.96093 8.8717 8.8416 7.95841 9.92968 7.95841C11.0178 7.95841 11.8984 8.8717 11.8984 10.0001C11.8984 11.1285 11.0178 12.0417 9.92968 12.0417Z" fill="#130536" fill-opacity="0.6"/>
</g>
<defs>
<clipPath id="clip0_164_185">
<rect width="20" height="20" fill="white"/>
</clipPath>
</defs>
</svg>
